<svg xmlns="http://www.w3.org/2000/svg" viewBox="0 0 128 128" role="img" aria-label="FrameFactory">
  <rect width="128" height="128" rx="28" fill="#0B1220"/>
  <g fill="#E8EEF2">
    <rect x="10" y="18" width="8" height="12" rx="2"/>
    <rect x="10" y="44" width="8" height="12" rx="2"/>
    <rect x="10" y="72" width="8" height="12" rx="2"/>
    <rect x="10" y="98" width="8" height="12" rx="2"/>
    <rect x="110" y="18" width="8" height="12" rx="2"/>
    <rect x="110" y="44" width="8" height="12" rx="2"/>
    <rect x="110" y="72" width="8" height="12" rx="2"/>
    <rect x="110" y="98" width="8" height="12" rx="2"/>
  </g>
  <rect x="28" y="20" width="72" height="88" rx="4" fill="none" stroke="#F4F6F8" stroke-width="3"/>
  <path fill="#F4F6F8" d="M44 36h12v18h18v11H56v27H44V36z"/>
  <rect x="44" y="36" width="40" height="11" rx="1" fill="#14B8A6"/>
</svg>
